<?xml version="1.0" standalone="no"?><!DOCTYPE svg PUBLIC "-//W3C//DTD SVG 1.1//EN" "http://www.w3.org/Graphics/SVG/1.1/DTD/svg11.dtd"><svg class="icon" width="16px" height="16.00px" viewBox="0 0 1024 1024" version="1.1" xmlns="http://www.w3.org/2000/svg"><path d="M102.4 102.4m51.2 0l716.8 0q51.2 0 51.2 51.2l0 716.8q0 51.2-51.2 51.2l-716.8 0q-51.2 0-51.2-51.2l0-716.8q0-51.2 51.2-51.2Z" fill="#FBB03B" /><path d="M665.6 430.08h256v204.8h-256a51.2 51.2 0 0 1-51.2-51.2V481.28a51.2 51.2 0 0 1 51.2-51.2z" fill="#FFFFFF" /><path d="M696.32 535.04m-30.72 0a30.72 30.72 0 1 0 61.44 0 30.72 30.72 0 1 0-61.44 0Z" fill="#FBB03B" /><path d="M102.4 256h819.2v20.48H102.4z" fill="#FFFFFF" /></svg>