<?xml version="1.0" standalone="no"?><!DOCTYPE svg PUBLIC "-//W3C//DTD SVG 1.1//EN" "http://www.w3.org/Graphics/SVG/1.1/DTD/svg11.dtd"><svg class="icon" width="16px" height="16.00px" viewBox="0 0 1024 1024" version="1.1" xmlns="http://www.w3.org/2000/svg"><path d="M960 828.512C960 883.264 915.472 928 860.912 928H163.088C108.528 928 64 883.264 64 828.512V400h896v428.512zM960 205.312C960 145.648 916.048 96 860.912 96H163.088C107.952 96 64 145.648 64 205.312V320h896v-114.688z" fill="#FFBD27" /><path d="M608.64 96v462.944a16 16 0 0 1-24.528 13.552l-43.712-27.52-19.616-12.352-19.616 12.368-43.712 27.504a16 16 0 0 1-24.512-13.552V96h175.68z" fill="#ffffff" /></svg>