<?xml version="1.0" standalone="no"?><!DOCTYPE svg PUBLIC "-//W3C//DTD SVG 1.1//EN" "http://www.w3.org/Graphics/SVG/1.1/DTD/svg11.dtd"><svg class="icon" width="16px" height="14.73px" viewBox="0 0 1112 1024" version="1.1" xmlns="http://www.w3.org/2000/svg"><path d="M774.744237 1006.113537c-53.659389 0-98.375546-43.598253-98.375546-98.375546s43.598253-98.375546 98.375546-98.375546c27.947598 0 54.777293 12.296943 72.663756 32.419214 19.004367 21.240175 26.829694 48.069869 24.593886 76.017468-4.471616 45.834061-41.362445 80.489083-86.078603 86.078602-3.353712 2.235808-6.707424 2.235808-11.179039 2.235808z m-437.100437 1.117904c-53.659389 0-98.375546-43.598253-98.375545-98.375546s43.598253-98.375546 98.375545-98.375546c27.947598 0 54.777293 12.296943 72.663756 32.419214 19.004367 21.240175 26.829694 48.069869 24.593886 77.135371-4.471616 45.834061-41.362445 81.606987-87.196506 87.196507h-10.061136z m593.606987-116.262009v-5.589519c-5.58952-82.724891-76.017467-147.563319-158.742358-147.563319h-12.296943c-78.253275 5.58952-141.973799 69.310044-147.563319 147.563319v5.589519H496.386158v-5.589519c-5.58952-82.724891-76.017467-147.563319-158.742358-147.563319h-12.296943c-78.253275 5.58952-141.973799 69.310044-147.563319 147.563319v5.589519H69.346857C38.045547 890.969432 12.333757 830.60262 12.333757 757.938865V374.497817c0-39.126638 27.947598-53.659389 73.781659-77.135372 16.768559-7.825328 35.772926-17.886463 57.013101-30.183406 55.895197-30.183406 115.144105-55.895197 176.628821-76.017467v-72.663755C319.757338 59.248908 367.827207 11.179039 427.076115 11.179039h562.305677c59.248908 0 107.318777 48.069869 107.318777 107.318778v664.034934c0 59.248908-48.069869 107.318777-107.318777 107.318777l-58.131005 1.117904z m-623.790393-626.026201c-7.825328 0-17.886463 3.353712-27.947598 10.061136-24.593886 15.650655-107.318777 68.19214-156.50655 103.965065-21.240175 17.886463-29.065502 34.655022-23.475983 49.187773 4.471616 11.179039 16.768559 17.886463 20.122271 17.886463h153.152838c35.772926 0 45.834061-10.061135 45.834062-45.834061V278.358079c0-12.296943-5.58952-13.414847-11.17904-13.414848z" fill="#F7A522" /><path d="M337.6438 802.655022c-59.248908 0-107.318777 48.069869-107.318777 107.318777s48.069869 107.318777 107.318777 107.318777c3.353712 0 8.943231 0 12.296944-1.117904 50.305677-5.58952 89.432314-45.834061 93.90393-93.90393 3.353712-30.183406-5.58952-60.366812-26.829695-83.842794-20.122271-23.475983-48.069869-35.772926-79.371179-35.772926z m11.17904 195.633188h-10.061136c-49.187773 0-89.432314-40.244541-89.432314-89.432315s40.244541-89.432314 89.432314-89.432314c25.71179 0 49.187773 11.179039 65.956332 30.183406 16.768559 19.004367 24.593886 44.716157 22.358079 70.427947-5.58952 41.362445-38.008734 73.781659-78.253275 78.253276z" fill="#D38700" /><path d="M1073.224586 35.772926c-22.358079-22.358079-52.541485-35.772926-83.842794-35.772926H427.076115c-65.956332 0-119.615721 53.659389-119.615721 118.497817v63.720524c-60.366812 21.240175-118.497817 45.834061-171.039301 73.781659-21.240175 12.296943-40.244541 22.358079-57.0131 30.183406l-2.235808 1.117904c-44.716157 24.593886-77.135371 41.362445-77.135371 87.196507v383.441048c0 82.724891 29.065502 144.209607 68.192139 144.209607h118.497817l2.235808-15.650655c5.58952-73.781659 63.720524-133.030568 136.384279-136.38428h11.179039c77.135371 0 141.973799 60.366812 147.563319 138.620087l1.117904 14.532752H621.591399l2.235808-15.650655c5.58952-73.781659 63.720524-133.030568 136.384279-136.38428h11.179039c77.135371 0 141.973799 60.366812 147.563319 138.620087l2.235808 14.532751h67.074236c64.838428 0 118.497817-53.659389 118.497816-118.497816V118.497817c1.117904-31.30131-11.179039-60.366812-33.537118-82.724891zM325.346857 726.637555c-81.606987 5.58952-148.681223 71.545852-157.624454 153.152838H69.346857c-21.240175 0-45.834061-52.541485-45.834061-121.851528V374.497817c0-32.419214 22.358079-43.598253 67.074236-65.956332 16.768559-8.943231 35.772926-17.886463 57.0131-30.183406 54.777293-29.065502 115.144105-54.777293 177.746725-77.135372l3.353712-1.117904v-81.606986c0-52.541485 43.598253-96.139738 96.139738-96.139738h563.423581c52.541485 0 96.139738 43.598253 96.139738 96.139738v664.034934c0 52.541485-43.598253 96.139738-96.139738 96.139738h-46.951965c-8.943231-86.078603-82.724891-152.034934-171.039302-152.034934h-12.296943C677.486595 732.227074 610.412359 798.183406 600.351224 879.790393h-95.021834c-7.825328-86.078603-81.606987-153.152838-168.803494-153.152838h-11.179039z" fill="#D38700" /><path d="M774.744237 802.655022c-59.248908 0-107.318777 48.069869-107.318777 107.318777s48.069869 107.318777 107.318777 107.318777c3.353712 0 8.943231 0 12.296943-1.117904 49.187773-5.58952 89.432314-44.716157 93.90393-93.90393 3.353712-29.065502-5.58952-60.366812-26.829694-82.72489-19.004367-23.475983-48.069869-36.89083-79.371179-36.89083z m11.179039 194.515284h-10.061135c-49.187773 0-88.31441-40.244541-88.31441-88.314411 0-49.187773 40.244541-88.31441 88.31441-88.31441 25.71179 0 49.187773 11.179039 65.956332 29.065502 16.768559 19.004367 24.593886 44.716157 22.358079 69.310044-5.58952 41.362445-38.008734 74.899563-78.253276 78.253275zM307.460394 253.764192c-12.296943 0-24.593886 6.707424-34.655022 12.296943-4.471616 3.353712-11.179039 6.707424-20.12227 12.296944-33.537118 21.240175-97.257642 61.484716-137.502184 91.668122C84.997512 397.973799 83.879608 419.213974 89.469128 432.628821c5.58952 15.650655 21.240175 24.593886 30.183406 24.593886h153.152838c41.362445 0 57.0131-15.650655 57.013101-57.0131V278.358079c0-15.650655-7.825328-24.593886-22.358079-24.593887z m-176.628821 134.148472c42.480349-32.419214 110.672489-76.017467 144.209607-97.257642l10.061136-6.707424c7.825328-5.58952 16.768559-7.825328 21.240174-7.825327v124.087336c0 29.065502-5.58952 34.655022-34.655021 34.655022H119.652534c-2.235808 0-8.943231-4.471616-11.179039-11.179039-2.235808-8.943231 6.707424-22.358079 22.358078-35.772926z" fill="#D38700" /></svg>