<?xml version="1.0" standalone="no"?><!DOCTYPE svg PUBLIC "-//W3C//DTD SVG 1.1//EN" "http://www.w3.org/Graphics/SVG/1.1/DTD/svg11.dtd"><svg class="icon" width="16px" height="16.00px" viewBox="0 0 1024 1024" version="1.1" xmlns="http://www.w3.org/2000/svg"><path d="M15.284 504.358a496.716 496.716 0 1 0 993.432 0 496.716 496.716 0 1 0-993.432 0z" fill="#FA9A2B" /><path d="M751.188 335.475l-48.143-48.144c-7.642-7.641-19.105-12.227-30.567-12.227s-22.926 4.586-30.568 12.227l-38.973 45.851-209.385 200.215-0.764 0.764-13.755 119.976c0 0.764 0 0.764 0.764 1.529l6.878 6.113h0.764l116.92-16.048s0.763 0 0.763-0.764l200.215-209.385 45.851-37.445c8.406-8.406 12.991-19.868 12.991-31.331 0-11.463-4.585-23.69-12.99-31.331zM415.713 625.099l3.057-51.2 47.38 47.379-50.437 3.82z m78.71-19.105L433.29 544.86l184.93-184.167 60.371 60.37-184.167 184.931z m235.368-230.782l-26.746 26.746-65.72-65.72 26.747-26.745c2.292-2.293 5.349-3.821 9.17-3.821 3.057 0 6.877 1.528 9.17 3.82l48.143 48.144c3.821 4.585 3.821 12.227-0.764 17.576z m-21.397 100.107c-8.406 0-15.284 6.878-15.284 15.284v187.224c0 18.34-14.519 32.86-31.33 32.86H366.805c-9.17 0-18.34-3.821-25.982-9.935-8.406-6.877-12.991-15.283-12.991-22.925v-294.21c0-17.575 20.633-37.444 38.973-37.444h158.95c8.405 0 15.283-6.877 15.283-15.283s-6.878-15.284-15.284-15.284H366.806c-38.973 0-68.776 29.803-68.776 67.248v294.973c0 18.34 6.877 34.388 20.633 45.85 12.99 11.463 29.803 17.577 48.907 17.577h294.21c18.34 0 34.387-6.114 45.086-17.576 10.698-11.463 16.812-26.747 16.812-45.851V490.603c0-8.406-6.878-15.284-15.284-15.284z" fill="#FFFFFF" /></svg>