<?xml version="1.0" standalone="no"?><!DOCTYPE svg PUBLIC "-//W3C//DTD SVG 1.1//EN" "http://www.w3.org/Graphics/SVG/1.1/DTD/svg11.dtd"><svg class="icon" width="16px" height="13.66px" viewBox="0 0 1199 1024" version="1.1" xmlns="http://www.w3.org/2000/svg"><path d="M470.191716 506.546746m-458.073373 0a458.073373 458.073373 0 1 0 916.146746 0 458.073373 458.073373 0 1 0-916.146746 0Z" fill="#F7A522" /><path d="M1181.538462 645.907692c-13.330178-18.177515-38.778698-23.024852-58.168048-9.694674l-47.261538 32.719526c13.330178-52.108876 21.813018-105.429586 21.813017-162.385798 0-76.345562-13.330178-149.055621-38.778698-216.918344-6.059172-14.542012-20.601183-25.448521-37.566864-25.44852-21.813018 0-39.990533 18.177515-39.990532 39.990532 0 7.271006 2.423669 15.753846 3.635503 15.753846 20.601183 58.168047 32.719527 121.183432 32.719526 186.622486 0 92.099408-23.024852 178.139645-61.80355 253.273372 0 0 0 1.211834-1.211834 2.423669 0 1.211834-1.211834 1.211834-1.211835 2.423669-2.423669 4.847337-3.635503 9.694675-3.635502 15.753846 0 16.96568 10.906509 32.719527 26.660355 37.566864h1.211834c1.211834 0 2.423669 1.211834 4.847337 1.211834 10.906509 2.423669 23.024852 0 32.719527-6.059172l155.114793-109.065088c19.389349-13.330178 24.236686-39.990533 10.906509-58.168048z" fill="#F7A522" /><path d="M470.191716 36.35503C210.859172 36.35503 0 247.214201 0 506.546746c0 260.544379 210.859172 471.40355 470.191716 471.40355s470.191716-212.071006 470.191716-471.40355S729.52426 36.35503 470.191716 36.35503z m0 24.236686C590.163314 60.591716 702.863905 107.853254 786.480473 192.681657c83.616568 84.828402 129.666272 196.31716 129.666273 313.865089 0 246.002367-199.952663 445.95503-445.95503 445.955029C224.189349 952.501775 24.236686 752.549112 24.236686 506.546746 24.236686 260.544379 224.189349 60.591716 470.191716 60.591716zM1190.021302 639.848521c-7.271006-10.906509-19.389349-19.389349-35.143195-21.813018-14.542012-1.211834-27.872189 2.423669-38.778699 9.694675L1095.498225 642.272189c9.694675-43.626036 14.542012-88.463905 14.542012-133.301775 0-75.133728-13.330178-150.267456-38.778699-221.76568l-2.423668-6.059172c-8.48284-16.96568-26.660355-27.872189-44.83787-27.872189-29.084024 0-52.108876 23.024852-52.108876 52.108876 0 7.271006 2.423669 13.330178 3.635503 16.96568V325.983432c21.813018 58.168047 32.719527 119.971598 32.719527 181.775148 0 84.828402-20.601183 170.868639-60.591716 248.426035l-2.423669 4.847338c-2.423669 7.271006-3.635503 13.330178-3.635503 19.389349 0 21.813018 13.330178 39.990533 32.719527 47.261538 6.059172 2.423669 14.542012 4.847337 21.813018 4.847338 10.906509 0 20.601183-2.423669 29.084023-8.482841l155.114793-109.065088c20.601183-18.177515 26.660355-50.897041 9.694675-75.133728z m-25.448521 54.532544l-155.114793 109.065089c-6.059172 4.847337-18.177515 6.059172-23.024852 4.847337s-7.271006-2.423669-7.271006-2.423669c-9.694675-4.847337-15.753846-14.542012-15.753846-25.44852 0-3.635503 1.211834-7.271006 3.635503-12.118343l3.635503-8.482841c38.778698-78.769231 59.379882-166.021302 59.379882-254.485207 0-64.227219-10.906509-128.454438-32.719527-189.046154 0-1.211834 0-1.211834-1.211834-2.423668-1.211834-2.423669-1.211834-6.059172-1.211835-8.48284 0-15.753846 12.118343-27.872189 27.87219-27.87219 10.906509 0 21.813018 7.271006 25.44852 18.177515l1.211835 3.635503c24.236686 65.439053 37.566864 136.937278 37.566864 209.647337 0 52.108876-7.271006 105.429586-21.813018 158.750296l-9.694675 32.719527 75.133728-52.108876c6.059172-4.847337 13.330178-6.059172 21.813018-4.847337 7.271006 1.211834 14.542012 6.059172 18.177515 12.118343 9.694675 10.906509 7.271006 30.295858-6.059172 38.778698z" fill="#D38700" /><path d="M611.976331 258.12071h-15.753846c-8.48284 0-16.96568 4.847337-20.601183 12.118343l-83.616568 155.114793c-8.48284 16.96568-32.719527 16.96568-41.202367 0l-83.616568-155.114793c-3.635503-7.271006-12.118343-12.118343-20.601184-12.118343h-15.753846c-18.177515 0-29.084024 19.389349-20.601183 35.143195l88.463905 156.326628c8.48284 15.753846-2.423669 35.143195-20.601183 35.143195h-42.414201c-13.330178 0-23.024852 10.906509-23.024853 24.236686v14.542012c0 13.330178 10.906509 23.024852 23.024853 23.024852h81.192899c13.330178 0 23.024852 10.906509 23.024852 24.236686s-10.906509 23.024852-23.024852 23.024853h-81.192899c-13.330178 0-23.024852 10.906509-23.024853 24.236686v14.542012c0 13.330178 10.906509 23.024852 23.024853 23.024852h81.192899c13.330178 0 23.024852 10.906509 23.024852 24.236686v101.794083c0 13.330178 10.906509 24.236686 24.236686 24.236686h16.965681c13.330178 0 23.024852-10.906509 23.024852-24.236686V678.627219c0-13.330178 10.906509-24.236686 24.236686-24.236686h82.404734c13.330178 0 23.024852-10.906509 23.024852-23.024853v-14.542011c0-13.330178-10.906509-24.236686-23.024852-24.236687h-82.404734c-13.330178 0-24.236686-10.906509-24.236686-23.024852 0-13.330178 10.906509-24.236686 24.236686-24.236686h82.404734c13.330178 0 23.024852-10.906509 23.024852-23.024852v-14.542012c0-13.330178-10.906509-24.236686-23.024852-24.236687h-43.626035c-18.177515 0-29.084024-19.389349-20.601184-35.143195l88.463905-156.326627c6.059172-14.542012-4.847337-33.931361-23.024852-33.931361z" fill="#FFFFFF" /></svg>