<?xml version="1.0" standalone="no"?><!DOCTYPE svg PUBLIC "-//W3C//DTD SVG 1.1//EN" "http://www.w3.org/Graphics/SVG/1.1/DTD/svg11.dtd"><svg class="icon" width="16px" height="16.00px" viewBox="0 0 1024 1024" version="1.1" xmlns="http://www.w3.org/2000/svg"><path fill="#707070" d="M816.432432 1010.106811V927.135135h-83.027027v83.027027l83.027027-0.055351z m155.177514 0.055351c21.199568 0 38.552216-16.992865 38.552216-37.749621V927.135135h-83.027027v82.971676l44.474811 0.055351zM373.621622 96.864865v276.756757H96.864865v-276.756757h276.756757z m42.786594-83.027027H54.105946C31.965405 13.837838 13.837838 31.965405 13.837838 54.105946v362.274595c0 22.140541 18.127568 40.268108 40.268108 40.268108h362.274595c22.140541 0 40.268108-18.127568 40.268108-40.268108V54.105946C456.648649 31.965405 438.521081 13.837838 416.408216 13.837838zM207.567568 249.081081a41.513514 41.513514 0 1 0 83.027027 0 41.513514 41.513514 0 0 0-83.027027 0z m719.567567-152.216216v276.756757H650.378378v-276.756757h276.756757z m42.758919-83.027027h-362.274595C585.478919 13.837838 567.351351 31.965405 567.351351 54.105946v362.274595c0 22.140541 18.127568 40.268108 40.268108 40.268108h362.274595c22.140541 0 40.268108-18.127568 40.268108-40.268108V54.105946C1010.162162 31.965405 992.034595 13.837838 969.894054 13.837838zM733.405405 249.081081a41.513514 41.513514 0 1 0 83.027027 0 41.513514 41.513514 0 0 0-83.027027 0zM373.621622 650.378378v276.756757H96.864865v-276.756757h276.756757z m42.786594-83.027027H54.105946c-22.140541 0-40.268108 18.127568-40.268108 40.268108v362.274595c0 22.140541 18.127568 40.268108 40.268108 40.268108h362.274595c22.140541 0 40.268108-18.127568 40.268108-40.268108v-362.274595c0-22.140541-18.127568-40.268108-40.240433-40.268108zM207.567568 774.918919a41.513514 41.513514 0 1 0 83.027027 0 41.513514 41.513514 0 0 0-83.027027 0z m762.326486-207.567568h-49.373405v177.124325h-88.562163v-177.124325h-224.339027c-22.140541 0-40.268108 18.127568-40.268108 40.268108v362.274595c0 22.140541 18.127568 40.268108 40.268108 40.268108H655.913514V744.475676h88.562162v88.562162H1010.162162v-225.418379c0-22.140541-18.127568-40.268108-40.268108-40.268108z"  fill-opacity=".8" /></svg>