<?xml version="1.0" standalone="no"?><!DOCTYPE svg PUBLIC "-//W3C//DTD SVG 1.1//EN" "http://www.w3.org/Graphics/SVG/1.1/DTD/svg11.dtd"><svg class="icon" width="200px" height="200.00px" viewBox="0 0 1024 1024" version="1.1" xmlns="http://www.w3.org/2000/svg"><path d="M753.86 860.59a426.15 426.15 0 0 1-25.52 16.46c-11.86 7.06-15.76 22.41-8.7 34.27 4.68 7.86 12.98 12.22 21.51 12.22 4.35 0 8.75-1.14 12.76-3.52 9.68-5.76 19.28-11.95 28.54-18.4 11.33-7.89 14.11-23.48 6.22-34.8s-23.48-14.12-34.81-6.23z" fill="#0000FF" /><path d="M948.17 329.07c-23.83-56.34-57.93-106.93-101.37-150.36-43.44-43.44-94.03-77.54-150.36-101.37-58.34-24.68-120.29-37.19-184.15-37.19S386.47 52.66 328.13 77.34c-56.34 23.83-106.93 57.93-150.36 101.37-43.44 43.44-77.54 94.03-101.37 150.36-24.68 58.34-37.19 120.29-37.19 184.15S51.72 639.03 76.4 697.37c23.83 56.34 57.93 106.93 101.37 150.36 43.44 43.44 94.03 77.54 150.36 101.37 58.34 24.67 120.29 37.19 184.15 37.19 31.52 0 63.03-3.12 93.68-9.28 13.54-2.72 22.31-15.9 19.59-29.43s-15.9-22.3-29.43-19.59c-27.41 5.51-55.61 8.3-83.83 8.3C279 936.29 89.21 746.5 89.21 513.22S279 90.15 512.28 90.15s423.07 189.79 423.07 423.07c0 114.24-44.83 221.29-126.23 301.46-9.84 9.69-9.96 25.52-0.27 35.35 9.69 9.84 25.52 9.96 35.35 0.27 44.21-43.54 78.95-94.42 103.24-151.23 25.16-58.83 37.91-121.36 37.91-185.85 0-63.85-12.51-125.81-37.18-184.15z" fill="#0000FF" /><path d="M688.34 470.23L528.49 327.4c-9.5-8.49-23.87-8.47-33.36 0.04L336.01 470.26c-7.71 6.92-10.35 17.87-6.65 27.55s12.99 16.06 23.35 16.06h21.06v153.37c0 13.81 11.19 25 25 25h80.85c13.81 0 25-11.19 25-25v-58.82h15.14v58.82c0 13.81 11.19 25 25 25h80.85c13.81 0 25-11.19 25-25V513.87h21.06c10.37 0 19.66-6.4 23.36-16.09a24.965 24.965 0 0 0-6.69-27.55z" fill="#FF0000" /></svg>