<?xml version="1.0" standalone="no"?><!DOCTYPE svg PUBLIC "-//W3C//DTD SVG 1.1//EN" "http://www.w3.org/Graphics/SVG/1.1/DTD/svg11.dtd"><svg class="icon" width="16px" height="16.00px" viewBox="0 0 1024 1024" version="1.1" xmlns="http://www.w3.org/2000/svg"><path fill="#d81e06" d="M684.032 735.232c-10.24 0-22.528-4.096-30.72-12.288l-339.968-368.64c-14.336-16.384-14.336-43.008 2.048-57.344s43.008-14.336 57.344 2.048l339.968 368.64c14.336 16.384 14.336 43.008-2.048 57.344-6.144 8.192-16.384 10.24-26.624 10.24z"  /><path fill="#d81e06" d="M335.872 733.184c-10.24 0-22.528-4.096-30.72-12.288-14.336-16.384-14.336-43.008 2.048-57.344l368.64-339.968c16.384-14.336 43.008-14.336 57.344 2.048 14.336 16.384 14.336 43.008-2.048 57.344l-368.64 339.968c-6.144 6.144-16.384 10.24-26.624 10.24z"  /><path fill="#d81e06" d="M512 1013.76C235.52 1013.76 10.24 788.48 10.24 512S235.52 10.24 512 10.24s501.76 225.28 501.76 501.76-225.28 501.76-501.76 501.76z m0-921.6C280.576 92.16 92.16 280.576 92.16 512S280.576 931.84 512 931.84 931.84 743.424 931.84 512 743.424 92.16 512 92.16z"  /></svg>