<?xml version="1.0" standalone="no"?><!DOCTYPE svg PUBLIC "-//W3C//DTD SVG 1.1//EN" "http://www.w3.org/Graphics/SVG/1.1/DTD/svg11.dtd"><svg class="icon" width="16px" height="16.00px" viewBox="0 0 1024 1024" version="1.1" xmlns="http://www.w3.org/2000/svg"><path fill="#2c2c2c" d="M496.978881-3.313198m24.791029 24.791029l0 0q24.791029 24.791029 0 49.582058l-431.170819 431.170818q-24.791029 24.791029-49.582058 0l0 0q-24.791029-24.791029 0-49.582058l431.170819-431.170818q24.791029-24.791029 49.582058 0Z"  /><path fill="#2c2c2c" d="M521.73543 940.125101a35.05981 35.05981 0 0 1-49.513098 0L41.051513 508.954283a35.05981 35.05981 0 0 1 49.582058-49.582058l431.170819 431.170818c13.65403 13.65403 13.61955 35.893548-0.06896 49.582058z"  /><path fill="#2c2c2c" d="M69.87581 448.316952m35.059809 0l847.043048 0q35.05981 0 35.059809 35.05981l0 0q0 35.05981-35.059809 35.059809l-847.043048 0q-35.05981 0-35.059809-35.059809l0 0q0-35.05981 35.059809-35.05981Z"  /></svg>