<?xml version="1.0" standalone="no"?><!DOCTYPE svg PUBLIC "-//W3C//DTD SVG 1.1//EN" "http://www.w3.org/Graphics/SVG/1.1/DTD/svg11.dtd"><svg class="icon" width="16px" height="16.00px" viewBox="0 0 1024 1024" version="1.1" xmlns="http://www.w3.org/2000/svg"><path fill="#2c2c2c" d="M594.2950582 583.9738369a279.39898279 279.39898279 0 0 0-135.58866312-35.00581393c-6.02398279 0-11.34156967 0.31395327-21.58430246 1.0399713-18.32703525 1.39316885-36.47747131 4.59156967-54.15697623 9.555959C266.29215081 592.25436065 179.60174427 705.51308115 173.65624999 833.27252869l-0.15697704 4.31686066c-0.11773279 4.02252869-0.17659919 8.0450582-0.15697622 12.02834344 0 4.39534918 0.21584262 8.00581394 0.52979589 10.36046475l1.72674427 14.20639508H120.08793606v-32.39607541c0-135.80450573 77.36991311-263.97601721 194.4549418-316.13154016 8.67296475-3.96366311 17.54215082-7.51526148 26.54869181-10.61555246a230.08866311 230.08866311 0 0 1-108-195.49491311A230.16715081 230.16715081 0 0 1 375.03779097 106.64680246 220.84665738 220.84665738 0 0 1 458.70639508 90.125c124.40406969 0 225.65406969 102.91787786 225.65406967 229.46075574a230.36337213 230.36337213 0 0 1-109.00072623 196.22093032A335.38081394 335.38081394 0 0 1 657.98837213 561.05523279a129.62354673 129.62354673 0 0 0-63.6736918 22.95784835z m-176.04941885-94.28415658c13.69622131 3.33575573 27.17659919 5.0625 40.46075572 5.0625 95.02979673 0 172.38008689-78.60610492 172.38008772-175.22529097 0-96.57994179-77.35029098-175.20566886-172.38008772-175.20566804a169.53488361 169.53488361 0 0 0-40.46075573 5.08212131 163.00072705 163.00072705 0 0 0-33.2398254 12.02834345 175.48037786 175.48037786 0 0 0-98.69912788 158.11482541 175.42151148 175.42151148 0 0 0 98.64026148 158.11482541c10.65479673 5.18023278 21.78052295 9.20276148 33.23982541 12.02834344h0.05886639z m433.90334344 206.93459263a86.14098852 86.14098852 0 0 1-92.83212214-52.43023197h-23.93895327a86.14098852 86.14098852 0 0 1-92.83212213 52.43023197l-11.87136639 20.23037786a83.74709262 83.74709262 0 0 1 0 105.5864828l11.87136639 20.23037787a86.14098852 86.14098852 0 0 1 92.8125 52.43023279h23.93895327a86.14098852 86.14098852 0 0 1 92.85174427-52.43023279l11.85174426-20.21075575a83.74709262 83.74709262 0 0 1 0-105.60610492l-11.85174426-20.21075574z m-142.0639541-83.78633689h74.52470983c0 29.47238361 24.52761639 53.37209262 54.74563934 53.37209263 9.90915738 0 19.17078525-2.55087214 27.15697706-7.06395328l37.63517377 64.18386639a53.11700573 53.11700573 0 0 0-27.54941804 46.30813935c0 19.87718032 11.08648279 37.125 27.54941804 46.30814017l-37.63517377 64.2034877c-8.30014508-4.63081394-17.65988362-7.06395327-27.17659919-7.06395329-30.21802295 0-54.72601721 23.89970902-54.72601721 53.37209346h-74.54433114c0-29.47238361-24.50799427-53.37209262-54.72601804-53.37209346-9.92877869 0-19.17078525 2.57049427-27.17659836 7.06395329l-37.63517459-64.1838664a53.11700573 53.11700573 0 0 0 27.54941886-46.30813935 53.03851721 53.03851721 0 0 0-27.54941886-46.30813933l37.63517459-64.20348853c8.00581394 4.51308115 17.2674418 7.06395327 27.17659836 7.06395328 30.21802295 0 54.74563935-23.89970902 54.74563935-53.37209263z"  /><path fill="#2c2c2c" d="M729.88372131 769.75581394c0 9.55595902 7.84883689 17.34593031 17.30668607 17.34593033a17.34593031 17.34593031 0 0 0 0-34.69186066 17.34593031 17.34593031 0 0 0-17.26744263 17.34593033h-0.03924344z m-34.80959344 0a52.19476721 52.19476721 0 1 1 104.38953524 0.05886639 52.19476721 52.19476721 0 0 1-104.38953524-0.05886639z"  /></svg>