<?xml version="1.0" standalone="no"?><!DOCTYPE svg PUBLIC "-//W3C//DTD SVG 1.1//EN" "http://www.w3.org/Graphics/SVG/1.1/DTD/svg11.dtd"><svg class="icon" width="16px" height="16.00px" viewBox="0 0 1024 1024" version="1.1" xmlns="http://www.w3.org/2000/svg"><path d="M505.041238 522.799532m-441.080267 0a441.080267 441.080267 0 1 0 882.160534 0 441.080267 441.080267 0 1 0-882.160534 0Z" fill="#FFFFFF" /><path d="M503.961933 524.637267m-439.629309 0a439.62931 439.62931 0 1 0 879.258619 0 439.62931 439.62931 0 1 0-879.258619 0Z" fill="#FFFFFF" /><path d="M504.568029 965.064981c-244.408006 0-442.527983-198.119978-442.527983-442.522581 0-244.408006 198.119978-442.527983 442.527983-442.527984 244.402604 0 442.522582 198.119978 442.522582 442.527984 0 244.402604-198.118897 442.522582-442.522582 442.522581z m177.01033-464.648872H526.689999v-154.884038h-44.249341v154.882957H327.5577v44.249341h154.882958v154.88728h44.249341V544.664369h154.887279v-44.24826z m0 0" fill="#FFA800" /></svg>