<?xml version="1.0" standalone="no"?><!DOCTYPE svg PUBLIC "-//W3C//DTD SVG 1.1//EN" "http://www.w3.org/Graphics/SVG/1.1/DTD/svg11.dtd"><svg class="icon" width="16px" height="16.00px" viewBox="0 0 1024 1024" version="1.1" xmlns="http://www.w3.org/2000/svg"><path fill="#2c2c2c" d="M509.2864 1017.9584c-280.6272 0-508.928-228.352-508.928-508.928 0-280.6272 228.3008-508.928 508.928-508.928s508.928 228.3008 508.928 508.928c0 280.576-228.3008 508.928-508.928 508.928z m0-943.7184c-239.7184 0-434.7904 195.072-434.7904 434.7904s195.072 434.7904 434.7904 434.7904 434.7904-195.072 434.7904-434.7904c0-239.7696-195.072-434.7904-434.7904-434.7904z"  /><path fill="#2c2c2c" d="M618.752 781.1072a37.0688 37.0688 0 0 1-33.4336-53.0432c0.512-1.1264 53.7088-114.176 51.456-219.5456-2.304-105.8816-60.2624-215.9616-60.8256-217.088a37.0688 37.0688 0 1 1 65.4848-34.816c2.7136 5.12 66.816 126.976 69.4784 250.3168 2.6112 123.392-56.2176 247.808-58.6752 253.0816a37.0688 37.0688 0 0 1-33.4848 21.0944zM479.6928 706.816a36.9664 36.9664 0 0 1-31.1808-57.1392c0.2048-0.256 28.9792-47.2576 28.9792-121.1392s-32.256-115.8656-32.6144-116.224a37.12 37.12 0 0 1 57.6-46.6944c2.048 2.4576 49.152 61.8496 49.152 162.9184 0 96.768-39.0656 158.72-40.704 161.28a37.0688 37.0688 0 0 1-31.232 16.9984zM346.8288 627.6608a37.0688 37.0688 0 0 1-34.048-51.6608s6.6048-16.384 6.6048-36.2496c0-18.6368-7.2704-32.8704-7.3728-32.9728a37.2736 37.2736 0 0 1 15.2576-50.0224 36.864 36.864 0 0 1 49.8688 14.5408c1.6896 3.072 16.384 30.72 16.384 68.4544 0 35.0208-11.264 62.464-12.5952 65.4336a37.0688 37.0688 0 0 1-34.0992 22.4768z"  /></svg>