<?xml version="1.0" standalone="no"?><!DOCTYPE svg PUBLIC "-//W3C//DTD SVG 1.1//EN" "http://www.w3.org/Graphics/SVG/1.1/DTD/svg11.dtd"><svg class="icon" width="200px" height="200.00px" viewBox="0 0 1024 1024" version="1.1" xmlns="http://www.w3.org/2000/svg"><path d="M524.1 812.1m-81.8 0a81.8 81.8 0 1 0 163.6 0 81.8 81.8 0 1 0-163.6 0Z" fill="#47464A" /><path d="M524.1 730.3c-45.2 0-81.8 36.6-81.8 81.8 0 23 9.5 43.7 24.7 58.5l118.9-111.9c-15-17.3-37.1-28.4-61.8-28.4z" fill="#626166" /><path d="M524.1 812.1m-57.8 0a57.8 57.8 0 1 0 115.6 0 57.8 57.8 0 1 0-115.6 0Z" fill="#6D6D6D" /><path d="M764.2 812.1m-81.8 0a81.8 81.8 0 1 0 163.6 0 81.8 81.8 0 1 0-163.6 0Z" fill="#47464A" /><path d="M764.2 730.3c-45.2 0-81.8 36.6-81.8 81.8 0 23 9.5 43.7 24.7 58.5L826 758.7c-14.9-17.3-37-28.4-61.8-28.4z" fill="#626166" /><path d="M764.2 812.1m-57.8 0a57.8 57.8 0 1 0 115.6 0 57.8 57.8 0 1 0-115.6 0Z" fill="#6D6D6D" /><path d="M858 262H381.1c-25.8 0-43.9 25.5-35.4 49.8l74.1 211.5c5.7 16.2 21 27.1 38.2 27.1h361.1c19.4 0 36-13.8 39.6-32.9l38.8-207.9c4.7-24.7-14.3-47.6-39.5-47.6z" fill="#FAB001" /><path d="M419.8 522.9L291 151.7c-4.9-14.2-18.3-23.7-33.3-23.7H104.3c-22.9 0-41.5 18.6-41.5 41.5S81.4 211 104.3 211h99.1c15 0 28.4 9.5 33.3 23.7l128.8 371.2c5.7 16.5 21.2 27.5 38.7 27.5h423.9c26.4 0 47.7 21.4 47.7 47.7 0 26.4-21.4 47.7-47.7 47.7H420.9c-22.9 0-41.5 18.6-41.5 41.5s18.6 41.5 41.5 41.5l407.2 0.1c72.3 0 130.9-58.6 130.9-130.9 0-72.3-58.6-130.9-130.9-130.9H458.5c-17.5 0.3-33-10.8-38.7-27.2z" fill="#9CE4F3" /><path d="M828.1 550.4H458.5c-17.4 0-33-11-38.7-27.5L291 151.7c-4.9-14.2-18.3-23.7-33.3-23.7H105.2c-6.8 7.4-11 17.2-11 28.1 0 22.9 18.6 41.5 41.5 41.5h99.1c15 0 28.4 9.5 33.3 23.7L397 592.4c5.7 16.5 21.2 27.5 38.7 27.5h423.9c26.4 0 47.7 21.4 47.7 47.7 0 25.7-20.4 46.7-45.9 47.7-8.6 8.4-20.3 13.6-33.3 13.6H421.7c-6.8 7.4-11 17.2-11 28.1 0 22.9 18.6 41.5 41.5 41.5l407.2 0.1c12.2 0 24.1-1.8 35.3-4.9 38.4-22.8 64.2-64.6 64.2-112.5 0.1-72.2-58.5-130.8-130.8-130.8z" fill="#52C5F8" /><path d="M835.8 325.1l24.4-63.1H381.1c-25.8 0-43.9 25.5-35.4 49.8l72.9 208.3 48.4 1.7 368.8-196.7z" fill="#F9E48A" /><path d="M810.1 290.6H433.7c-23.5 0-40 23.2-32.2 45.5l57.4 164c4.6 13 16.8 21.7 30.6 21.7H779c15.5 0 28.9-11.1 31.7-26.4l31.1-166.6c3.8-19.9-11.5-38.2-31.7-38.2z" fill="#FECE0A" /></svg>