<?xml version="1.0" standalone="no"?><!DOCTYPE svg PUBLIC "-//W3C//DTD SVG 1.1//EN" "http://www.w3.org/Graphics/SVG/1.1/DTD/svg11.dtd"><svg class="icon" width="200px" height="200.00px" viewBox="0 0 1024 1024" version="1.1" xmlns="http://www.w3.org/2000/svg"><path d="M861.420308 526.178462A113.427692 113.427692 0 0 1 738.540308 630.153846a95.153231 95.153231 0 0 1-99.564308-103.975384c0 52.932923-78.139077 103.975385-146.195692 103.975384a113.427692 113.427692 0 0 1-122.88-100.824615A113.427692 113.427692 0 0 1 247.650462 630.153846 113.427692 113.427692 0 0 1 126.030769 526.178462V504.123077l72.467693-283.569231a63.015385 63.015385 0 0 1 66.796307-46.001231h452.450462a63.015385 63.015385 0 0 1 66.796307 46.001231L858.269538 504.123077zM167.620923 787.692308H812.898462v134.852923H216.142769a48.521846 48.521846 0 0 1-48.521846-48.521846V787.692308z" fill="#FFE600" /><path d="M776.979692 650.948923a148.086154 148.086154 0 0 1-131.072-74.988308 151.867077 151.867077 0 0 1-262.144 0A148.716308 148.716308 0 0 1 252.061538 650.948923a142.414769 142.414769 0 0 1-146.195692-136.743385l3.780923-30.247384L189.046154 142.414769a84.440615 84.440615 0 0 1 84.440615-67.426461H756.184615a86.331077 86.331077 0 0 1 85.700923 66.166154l77.508924 341.543384 3.780923 31.507692a142.414769 142.414769 0 0 1-146.195693 136.743385zM661.661538 514.205538a110.907077 110.907077 0 0 0 115.318154 105.235693 110.907077 110.907077 0 0 0 115.318154-103.975385l-3.780923-27.096615-76.878769-339.022769a54.193231 54.193231 0 0 0-55.453539-42.850462H273.486769a52.302769 52.302769 0 0 0-55.453538 43.480615L140.524308 489.629538l-3.15077 26.466462A110.907077 110.907077 0 0 0 252.061538 619.441231a110.907077 110.907077 0 0 0 115.948308-105.235693h31.507692a110.907077 110.907077 0 0 0 115.318154 105.235693A110.907077 110.907077 0 0 0 630.153846 514.205538z" fill="#666666" /><path d="M795.884308 938.299077H233.787077a78.769231 78.769231 0 0 1-78.769231-78.769231v-194.717538h719.635692v194.717538a78.769231 78.769231 0 0 1-78.76923 78.769231zM189.046154 693.169231v163.209846a47.261538 47.261538 0 0 0 47.261538 47.261538h562.097231a47.261538 47.261538 0 0 0 47.261539-47.261538V693.169231z" fill="#666666" /></svg>