<?xml version="1.0" standalone="no"?><!DOCTYPE svg PUBLIC "-//W3C//DTD SVG 1.1//EN" "http://www.w3.org/Graphics/SVG/1.1/DTD/svg11.dtd"><svg class="icon" width="200px" height="200.00px" viewBox="0 0 1024 1024" version="1.1" xmlns="http://www.w3.org/2000/svg"><path fill="#333333" d="M463.57333333 36.48C764.58666667 6.93333333 1015.57333333 256.85333333 987.73333333 557.54666667c-20.37333333 220.26666667-194.98666667 400.74666667-414.61333333 428.48-111.68 14.08-216.42666667-11.2-303.78666667-62.82666667l-133.97333333 46.18666667c-14.18666667 4.90666667-28.37333333-7.46666667-25.49333333-22.18666667l27.09333333-139.73333333C61.86666667 712.32 21.65333333 588.16 37.54666667 454.18666667 63.68 234.24 243.09333333 58.24 463.57333333 36.48z m0.64 427.73333333c-26.34666667 0-47.78666667 21.44-47.78666666 47.78666667 0 26.34666667 21.44 47.78666667 47.78666666 47.78666667H750.93333333c26.34666667 0 47.78666667-21.44 47.78666667-47.78666667 0-26.34666667-21.44-47.78666667-47.78666667-47.78666667H464.21333333zM273.06666667 559.78666667c26.34666667 0 47.78666667-21.44 47.78666666-47.78666667 0-26.34666667-21.44-47.78666667-47.78666666-47.78666667-26.34666667 0-47.78666667 21.44-47.78666667 47.78666667 0 26.34666667 21.44 47.78666667 47.78666667 47.78666667z" /></svg>