<?xml version="1.0" standalone="no"?><!DOCTYPE svg PUBLIC "-//W3C//DTD SVG 1.1//EN" "http://www.w3.org/Graphics/SVG/1.1/DTD/svg11.dtd"><svg class="icon" width="200px" height="200.00px" viewBox="0 0 1024 1024" version="1.1" xmlns="http://www.w3.org/2000/svg"><path d="M474 490.5H63.9c-4.4 0-8-3.6-8-8V72.3c0-4.4 3.6-8 8-8H474c4.4 0 8 3.6 8 8v410.2c0.1 4.4-3.5 8-8 8z" fill="#39AFDA" /><path d="M142.5 64.2c-47.8 0-86.6 38.8-86.6 86.6v253c0 14.4 3.6 28 9.8 39.9 13.7 9.2 30.2 14.5 48 14.5h253c47.8 0 86.6-38.8 86.6-86.6v-253c0-14.4-3.6-28-9.8-39.9-13.7-9.2-30.2-14.5-48-14.5h-253z" fill="#9CE4F3" /><path d="M171.3 92.2c-47.8 0-86.6 38.8-86.6 86.6v253c0 7.8 1.1 15.3 3.1 22.5 8.2 2.6 16.9 4 25.9 4h253c47.8 0 86.6-38.8 86.6-86.6v-253c0-7.8-1.1-15.3-3.1-22.5-8.2-2.6-16.9-4-25.9-4h-253z" fill="#52C5F8" /><path d="M474 969.7H63.9c-4.4 0-8-3.6-8-8V551.5c0-4.4 3.6-8 8-8H474c4.4 0 8 3.6 8 8v410.2c0.1 4.4-3.5 8-8 8z" fill="#39AFDA" /><path d="M142.5 543.5c-47.8 0-86.6 38.8-86.6 86.6v253c0 14.4 3.6 28 9.8 39.9 13.7 9.2 30.2 14.5 48 14.5h253c47.8 0 86.6-38.8 86.6-86.6V598c0-14.4-3.6-28-9.8-39.9-13.7-9.2-30.2-14.5-48-14.5h-253z" fill="#9CE4F3" /><path d="M171.3 571.5c-47.8 0-86.6 38.8-86.6 86.6v253c0 7.8 1.1 15.3 3.1 22.5 8.2 2.6 16.9 4 25.9 4h253c47.8 0 86.6-38.8 86.6-86.6V598c0-7.8-1.1-15.3-3.1-22.5-8.2-2.6-16.9-4-25.9-4h-253z" fill="#52C5F8" /><path d="M960 490.5H549.8c-4.4 0-8-3.6-8-8V72.3c0-4.4 3.6-8 8-8H960c4.4 0 8 3.6 8 8v410.2c0 4.4-3.6 8-8 8z" fill="#39AFDA" /><path d="M628.4 64.2c-47.8 0-86.6 38.8-86.6 86.6v253c0 14.4 3.6 28 9.8 39.9 13.7 9.2 30.2 14.5 48 14.5h253c47.8 0 86.6-38.8 86.6-86.6v-253c0-14.4-3.6-28-9.8-39.9-13.7-9.2-30.2-14.5-48-14.5h-253z" fill="#9CE4F3" /><path d="M657.3 92.2c-47.8 0-86.6 38.8-86.6 86.6v253c0 7.8 1.1 15.3 3.1 22.5 8.2 2.6 16.9 4 25.9 4h253c47.8 0 86.6-38.8 86.6-86.6v-253c0-7.8-1.1-15.3-3.1-22.5-8.2-2.6-16.9-4-25.9-4h-253z" fill="#52C5F8" /><path d="M871.1 830.1l-42.6 42.6c-1.2 1.2-1.2 3.2 0 4.4l106.7 106.7c1.2 1.2 3.2 1.2 4.4 0l42.6-42.6c1.2-1.2 1.2-3.2 0-4.4L875.4 830.1c-1.2-1.2-3.1-1.2-4.3 0z" fill="#FAB001" /><path d="M847 854.8c-10 13-9.2 31.7 2.7 43.7l64 64c11.9 11.9 30.6 12.8 43.7 2.7 10-13 9.2-31.7-2.7-43.7l-64-64c-11.9-12-30.6-12.8-43.7-2.7z" fill="#FECE0A" /><path d="M596.445638 874.244369a195.2 195.2 0 1 0 276.049669-276.059305 195.2 195.2 0 1 0-276.049669 276.059305Z" fill="#FAB001" /><path d="M834 603c-39.3-39.3-91.3-58.2-142.8-56.9-34.7 7.9-67.7 25.1-94.7 52.1-76.2 76.2-76.2 199.8 0 276.1 39.3 39.3 91.3 58.2 142.8 56.9 34.7-7.9 67.7-25.1 94.7-52.1 76.3-76.2 76.3-199.8 0-276.1z" fill="#F9E48A" /><path d="M629.1 594c-76.2 76.2-76.2 199.8 0 276.1 35.2 35.2 80.6 53.9 126.7 56.6 28.6-9.1 55.5-24.8 78.2-47.5 76.2-76.2 76.2-199.8 0-276.1-35.2-35.2-80.6-53.9-126.7-56.6-28.6 9.1-55.5 24.8-78.2 47.5z" fill="#FECE0A" /></svg>