<?xml version="1.0" standalone="no"?><!DOCTYPE svg PUBLIC "-//W3C//DTD SVG 1.1//EN" "http://www.w3.org/Graphics/SVG/1.1/DTD/svg11.dtd"><svg class="icon" width="16px" height="16.00px" viewBox="0 0 1024 1024" version="1.1" xmlns="http://www.w3.org/2000/svg"><path d="M0 0h1024v1024H0z" fill="#FFFFFF" /><path d="M128 853.333333c-72.533333 0-128-55.466667-128-119.466666V311.466667c0-29.866667 12.8-55.466667 38.4-76.8 17.066667-12.8 42.666667-21.333333 68.266667-21.333334 29.866667 0 59.733333 12.8 81.066666 34.133334 0 0 21.333333 25.6 68.266667 76.8 17.066667 17.066667 42.666667 29.866667 68.266667 29.866666h384c25.6 0 51.2-8.533333 68.266666-29.866666l68.266667-76.8c17.066667-21.333333 42.666667-34.133333 72.533333-34.133334 25.6 0 46.933333 8.533333 68.266667 21.333334 25.6 21.333333 38.4 46.933333 38.4 76.8v418.133333c0 68.266667-59.733333 119.466667-128 119.466667H128z" fill="#FF0036" /><path d="M554.666667 810.666667l-21.333334-29.866667 21.333334-12.8c25.6-17.066667 42.666667-46.933333 42.666666-81.066667v-166.4c0-25.6-21.333333-46.933333-46.933333-46.933333h-29.866667v-34.133333h29.866667c46.933333 0 85.333333 34.133333 85.333333 81.066666v166.4c0 42.666667-21.333333 85.333333-59.733333 106.666667l-21.333333 17.066667z" fill="#FFFFFF" /><path d="M550.4 588.8l-21.333333-29.866667 76.8-51.2 21.333333 29.866667zM550.4 686.933333l-21.333333-25.6 76.8-55.466666 21.333333 29.866666zM665.6 499.2h268.8v-34.133333h-268.8z" fill="#FFFFFF" /><path d="M708.266667 533.333333h38.4v-102.4h-38.4zM853.333333 533.333333h38.4v-102.4H853.333333zM699.733333 593.066667v145.066666c0 17.066667 17.066667 34.133333 34.133334 34.133334h128c17.066667 0 34.133333-12.8 34.133333-34.133334v-145.066666h-196.266667z m162.133334 213.333333h-128c-38.4 0-72.533333-29.866667-72.533334-68.266667v-179.2h273.066667v179.2c0 38.4-29.866667 68.266667-72.533333 68.266667z" fill="#FFFFFF" /><path d="M686.933333 699.733333h230.4v-34.133333h-230.4z" fill="#FFFFFF" /><path d="M780.8 789.333333h38.4v-213.333333h-38.4zM93.866667 810.666667l-8.533334-34.133334c106.666667-25.6 179.2-115.2 179.2-217.6v-106.666666h38.4v106.666666c0 119.466667-85.333333 221.866667-209.066666 251.733334" fill="#FFFFFF" /><path d="M473.6 810.666667c-123.733333-29.866667-209.066667-132.266667-209.066667-251.733334v-106.666666h38.4v106.666666c0 102.4 72.533333 192 179.2 217.6l-8.533333 34.133334z" fill="#FFFFFF" /><path d="M102.4 473.6h362.666667v-34.133333H102.4zM85.333333 610.133333h401.066667v-34.133333H85.333333z" fill="#FFFFFF" /></svg>