<?xml version="1.0" standalone="no"?><!DOCTYPE svg PUBLIC "-//W3C//DTD SVG 1.1//EN" "http://www.w3.org/Graphics/SVG/1.1/DTD/svg11.dtd"><svg class="icon" width="200px" height="200.00px" viewBox="0 0 1024 1024" version="1.1" xmlns="http://www.w3.org/2000/svg"><path fill="#333333" d="M604.60391 201.152804c-24.735976-24.741976-57.624944-38.371963-92.60391-38.371963s-67.867934 13.629987-92.59691 38.371963L138.700365 481.854529c-24.734976 24.728976-38.358963 57.623944-38.358963 92.59791 0 34.972966 13.623987 67.854934 38.358963 92.59791a37.556963 37.556963 0 0 0 26.550974 10.999989h134.061869v214.97279c0 72.220929 58.748943 130.970872 130.956872 130.970872h163.45984c72.206929 0 130.955872-58.749943 130.955872-130.970872V678.050338H858.759661c9.95699 0 19.509981-3.958996 26.550974-10.999989 24.741976-24.741976 38.358963-57.624944 38.358963-92.61091-0.006-34.972966-13.628987-67.854934-38.370963-92.58391L604.60391 201.152804z m236.174769 401.793607H687.134829c-20.73798 0-37.552963 16.808984-37.552963 37.552964v252.522753c0 30.80497-25.053976 55.864945-55.851946 55.864945H430.27008c-30.79897 0-55.851945-25.060976-55.851946-55.864945V640.499375c0-20.74398-16.813984-37.552963-37.551963-37.552964H183.251321c-12.694988-21.429979-9.84599-49.581952 8.550992-67.989933L472.510039 254.253752c10.54899-10.54899 24.569976-16.367984 39.489961-16.367984s28.939972 5.817994 39.496961 16.367984l280.700726 280.702726c10.55499 10.56099 16.368984 24.581976 16.368984 39.495961-0.001 10.18199-2.709997 19.960981-7.787992 28.493972zM154.00535 100.145902h716.0003c30.41397 0 55.069946-22.418978 55.069947-50.069951S900.419621 0.006 870.00565 0.006H154.00535c-30.41397 0-55.081946 22.418978-55.081947 50.069951s24.667976 50.069951 55.081947 50.069951z" /></svg>