<?xml version="1.0" standalone="no"?><!DOCTYPE svg PUBLIC "-//W3C//DTD SVG 1.1//EN" "http://www.w3.org/Graphics/SVG/1.1/DTD/svg11.dtd"><svg class="icon" width="16px" height="16.00px" viewBox="0 0 1024 1024" version="1.1" xmlns="http://www.w3.org/2000/svg"><path d="M511.99977 0.00046q511.99977 0 511.99977 511.99977t-511.99977 511.99977Q0 1024 0 512.00023T511.99977 0.00046z" fill="#DB1717" /><path d="M511.99977 0.00046a510.156771 510.156771 0 0 0-347.135844 135.679939A510.156771 510.156771 0 0 0 511.99977 271.360338a510.156771 510.156771 0 0 0 347.135844-135.679939A510.156771 510.156771 0 0 0 511.99977 0.00046z" fill="#FF4545" /><path d="M586.802736 731.546131L578.19974 773.580112h115.149949c30.052986-0.563 35.019984-13.004994 44.38998-43.92998l35.378984-168.293924H497.304777L450.559798 807.885097q-6.348997 41.624981 37.375983 41.624981h230.399896l54.169976-37.375983H555.262751c-16.332993 3.071999-21.75999-6.552997-16.332993-24.933989L575.999741 599.603191h105.266953l-23.499989 112.639949c-5.683997 15.923993-11.366995 18.380992-29.030987 19.251991zM447.999799 600.78019l20.479991-4.659998 13.259994-61.029972-20.479991 4.659998 8.192996-59.135974h19.096992l6.450997-44.38998h-19.147992l6.296997-29.491987h-95.179957l-6.399997 29.490987h-57.241974l-6.399997 44.38998h57.189974l-12.696994 88.72996-60.006973 16.639993-13.311994 61.029972 60.057973-16.178992L328.599852 787.047106c0 18.533992-7.320997 26.264988-21.45199 23.03999h-39.731982l-33.739985 39.269982h142.949936q40.959982 4.607998 43.62198-39.269982z m112.639949-193.996913l-57.650974 135.16794h76.184966l47.871978-90.92996h36.351984l21.91399 90.92996h86.424961l-32.101985-135.16794z m-346.777844-81.458963h168.959924v10.239995h-168.959924z m-33.995985 18.534992H312.31986v10.239995H179.813919z m-26.726988 17.355992h97.279957v10.239995h-97.279957z m590.181735 501.759774h127.589943v10.239996h-127.639943z m-33.996985 18.533992h101.580955v10.239995H709.272681z m0 0" fill="#FFFFFF" /><path d="M419.839811 279.501334a92.159959 92.159959 0 1 0 92.159959-92.159958 92.159959 92.159959 0 0 0-92.159959 92.159958z m0 0" fill="#FFF48D" /></svg>