<?xml version="1.0" standalone="no"?><!DOCTYPE svg PUBLIC "-//W3C//DTD SVG 1.1//EN" "http://www.w3.org/Graphics/SVG/1.1/DTD/svg11.dtd"><svg class="icon" width="16px" height="15.95px" viewBox="0 0 1027 1024" version="1.1" xmlns="http://www.w3.org/2000/svg"><path d="M152.479887 153.925194c0-47.695131 38.300635-85.995766 85.995766-85.995766h607.028934c47.695131 0 88.163726 38.300635 93.222301 83.827806 0 0 9.394495 109.120677 9.394495 145.253352v511.638673c0 47.695131-38.300635 83.827805-85.995765 83.827805H238.475653c-47.695131 0-85.995766-38.300635-85.995766-85.995765V153.925194z m0 0" fill="#FAD4C1" /><path d="M148.86662 659.782639H870.797459l131.522936 171.991532c47.695131 61.425547 23.124912 112.733945-55.644319 112.733945H80.214538c-78.046577 0-103.33945-51.308398-57.089626-112.733945l125.741708-171.991532z m0 0" fill="#FAD4C1" /><path d="M200.175018 67.929428h626.540578c47.695131 0 85.995766 38.300635 85.995766 85.995766v624.372618c0 47.695131-38.300635 85.995766-85.995766 85.995766H200.175018c-47.695131 0-85.995766-38.300635-85.995766-85.995766V153.925194c0.722653-47.695131 38.300635-85.995766 85.995766-85.995766z m0 0" fill="#E61F4B" /><path d="M431.424135 622.927311h74.43331v-36.132674H431.424135c-20.956951 0-30.351447-13.007763-30.351446-26.73818 0-13.007763 9.394495-20.956951 30.351446-20.956951h53.476359s-39.745942-53.476359-53.476359-76.60127c-13.007763-26.738179 41.913903-38.300635 57.089626-15.175724l45.527171 74.43331s24.570219-55.644319 41.913902-82.382498c13.007763-24.570219 68.652082 5.781228 53.476359 32.519407-15.175723 23.124912-44.081863 66.484121-44.081863 66.484122H639.548342c20.956951 0 26.738179 7.949188 26.738179 20.956951 0 13.007763-7.949188 26.738179-26.738179 26.738179H565.115032v36.132675H639.548342c20.956951 0 30.351447 7.949188 30.351446 20.956951 0 13.007763-9.394495 23.124912-30.351446 23.124912H565.115032v3.613267c0 30.351447-9.394495 45.52717-28.90614 45.52717h-20.956951c-11.562456 0-7.949188-24.570219-7.949189-45.52717v-3.613267H433.592096c-20.956951 0-30.351447-9.394495-30.351447-23.124912-2.16796-14.45307 7.226535-20.234298 28.183486-20.234298z m0 0" fill="#F9D0D4" /><path d="M412.635145 622.927311h74.433309v-36.132674H412.635145c-20.956951 0-30.351447-13.007763-30.351447-26.73818 0-13.007763 9.394495-20.956951 30.351447-20.956951H466.111503s-26.738179-44.081863-39.745942-65.038814c-13.007763-26.738179 30.351447-49.863091 44.081863-26.73818l45.52717 74.43331s34.687368-53.476359 49.863091-82.382498c13.007763-24.570219 59.257586 3.613267 44.081863 32.519407-15.175723 23.124912-44.081863 66.484121-44.081863 66.484122h53.476359c20.956951 0 30.351447 7.949188 30.351446 20.956951 0 13.007763-9.394495 26.738179-30.351446 26.738179H544.15808v36.132675h74.43331c20.956951 0 30.351447 7.949188 30.351447 20.956951 0 13.007763-9.394495 23.124912-30.351447 23.124912H544.15808v3.613267c0 30.351447-9.394495 45.52717-28.906139 45.52717-18.788991 0-28.90614-15.175723-28.90614-45.52717v-3.613267H412.635145c-20.956951 0-30.351447-9.394495-30.351447-23.124912-0.722653-14.45307 9.394495-20.234298 30.351447-20.234298zM114.901905 153.925194c0-47.695131 38.300635-85.995766 85.995766-85.995766H827.43825c47.695131 0 85.995766 38.300635 85.995766 85.995766v57.089626c0 78.046577-65.038814 143.085392-143.085392 143.085392H257.987297c-78.046577 0-143.085392-65.038814-143.085392-143.085392v-57.089626z m0 0" fill="#FFFFFF" /><path d="M114.901905 153.925194c0-47.695131 38.300635-85.995766 85.995766-85.995766H827.43825c47.695131 0 85.995766 38.300635 85.995766 85.995766V187.889908c0 66.484121-53.476359 119.96048-119.96048 119.96048H234.862385c-66.484121 0-119.96048-53.476359-119.96048-119.96048v-33.964714z m0 0" fill="#E61F4B" /></svg>