<?xml version="1.0" standalone="no"?><!DOCTYPE svg PUBLIC "-//W3C//DTD SVG 1.1//EN" "http://www.w3.org/Graphics/SVG/1.1/DTD/svg11.dtd"><svg class="icon" width="16px" height="16.00px" viewBox="0 0 1024 1024" version="1.1" xmlns="http://www.w3.org/2000/svg"><path d="M512 512m-512 0a512 512 0 1 0 1024 0 512 512 0 1 0-1024 0Z" fill="#EB4A4A" /><path d="M344 496h145.6v-38.4h-148.8v-80h134.4v-38.4H166.4v38.4h134.4v80H152V496h144c-14.4 57.6-60.8 105.6-145.6 153.6l19.2 33.6c52.8-28.8 118.4-73.6 150.4-140.8 8 17.6 19.2 33.6 33.6 49.6 27.2 32 65.6 60.8 118.4 89.6l19.2-33.6c-88-44.8-134.4-94.4-147.2-152z m334.4-64h38.4v-30.4h81.6V432h38.4v-30.4h36.8v-38.4h-36.8v-24h-38.4v24h-81.6v-24h-38.4v24h-36.8v38.4h36.8V432z m-76.8-73.6c-20.8-20.8-56-20.8-73.6-19.2h-4.8v38.4h6.4c12.8 0 36.8 0 46.4 9.6 1.6 1.6 6.4 6.4 6.4 17.6v12.8l-59.2 35.2 19.2 32 40-24v43.2l-59.2 35.2 19.2 32 40-24v32c0 8-4.8 22.4-11.2 30.4-17.6 22.4-48 40-48 40l19.2 33.6c1.6-1.6 36.8-20.8 59.2-49.6 11.2-14.4 19.2-36.8 19.2-54.4v-65.6-112c-1.6-16-8-32-19.2-43.2z m40 99.2v172.8c0 30.4 25.6 56 57.6 56H816c32 0 57.6-25.6 57.6-56V457.6H641.6z m97.6 190.4h-40c-9.6 0-19.2-8-19.2-19.2v-38.4h57.6v57.6z m0-96h-57.6V496h57.6v56z m96 76.8c0 9.6-8 19.2-19.2 19.2h-40v-57.6h57.6l1.6 38.4z m0-76.8h-57.6V496h57.6v56z" fill="#FFFFFF" /></svg>