<?xml version="1.0" standalone="no"?><!DOCTYPE svg PUBLIC "-//W3C//DTD SVG 1.1//EN" "http://www.w3.org/Graphics/SVG/1.1/DTD/svg11.dtd"><svg class="icon" width="16px" height="16.00px" viewBox="0 0 1024 1024" version="1.1" xmlns="http://www.w3.org/2000/svg"><path d="M512.512 515.584m-480.256 0a480.256 480.256 0 1 0 960.512 0 480.256 480.256 0 1 0-960.512 0Z" fill="#F7B752" /><path d="M509.952 493.056c79.872 0 144.896-65.024 144.896-144.896 0-79.872-65.024-144.384-144.896-144.384C430.08 203.776 365.568 268.288 365.568 348.16 365.056 428.544 430.08 493.056 509.952 493.056zM610.304 504.832L512 656.896 418.816 501.248c-90.624 36.352-163.328 128-161.792 276.48 181.248 68.608 350.72 64 512 0-1.536-143.36-71.168-234.496-158.72-272.896z" fill="#FFFFFF" /></svg>