<?xml version="1.0" standalone="no"?><!DOCTYPE svg PUBLIC "-//W3C//DTD SVG 1.1//EN" "http://www.w3.org/Graphics/SVG/1.1/DTD/svg11.dtd"><svg class="icon" width="16px" height="16.00px" viewBox="0 0 1024 1024" version="1.1" xmlns="http://www.w3.org/2000/svg"><path fill="#d81e06" d="M305.152 320.512h70.144v286.208H305.152z"  /><path fill="#d81e06" d="M512 0C229.376 0 0 229.376 0 512s229.376 512 512 512 512-229.376 512-512S794.624 0 512 0z m223.744 770.048H475.136v-70.656L663.552 496.64h-189.44V431.104h280.064V496.64l-193.536 206.848H696.32l28.16-52.224 58.368 30.72-47.104 88.064z m48.64-447.488h-248.832L441.344 411.136v261.632H239.104V253.952h202.24v67.072l38.912-36.864V218.112h66.56V256h237.568v66.56z"  /></svg>