<?xml version="1.0" standalone="no"?><!DOCTYPE svg PUBLIC "-//W3C//DTD SVG 1.1//EN" "http://www.w3.org/Graphics/SVG/1.1/DTD/svg11.dtd"><svg class="icon" width="16px" height="16.00px" viewBox="0 0 1024 1024" version="1.1" xmlns="http://www.w3.org/2000/svg"><path fill="#d81e06" d="M554 658.5l-1.7 2c7 6.2 14.9 11.5 23.5 16 10.1-5 19-11 26.7-18.1H554zM408 653.1h20.5v21.5H408zM547.4 549.4l-19.8-26.7-15.9 26.7zM408 682.8h20.5V704H408zM467.1 699.7c2.6 9.8 7.2 18.6 13.7 26.5 4.7-7.5 8.1-16.4 10.4-26.5h-24.1z"  /><path fill="#d81e06" d="M512 109c-222.6 0-403 180.4-403 403s180.4 403 403 403 403-180.4 403-403-180.4-403-403-403z m81 223.3l24.5 29-12.7 24.7h-2.9v0.4s-10.2 53.6-47.7 74.1c-18.2 10 14.9-22.1 14.9-22.1s19.8-20.4 27-52c0-0.1 0.1-0.2 0.1-0.4h-3v-53.7zM513.6 270c78.5 0 78.7 60.3 78.7 94.3 0 33.9-31.5 97-78.7 97-47.2 0.1-78.7-63.1-78.7-97 0.1-34 0.2-94.3 78.7-94.3z m-79.5 62.3V386h-11.8l-12.7-24.7 24.5-29z m2.7 411.6c0 7.8-3.6 11.7-10.7 11.7H416l-2.2-8.1c4.7 0.3 8 0.5 9.8 0.5 3.2 0 4.8-2.3 4.8-7v-28.6h-20.6c-0.8 17.7-3.8 32.3-9 43.9l-6.9-6.4c5-11.4 7.6-26 7.8-44v-61h37.1v99z m65.8 11.7c-8-4.6-14.9-9.8-20.9-15.6-5.6 6.5-12.2 11.8-19.7 15.8l-4.8-7.4c7.2-3.9 13.4-8.9 18.4-15-8.1-9.9-13.6-21.1-16.4-33.6h-3.1v56.3h-8.6V644.7H499c0 15.8-0.8 26.2-2.3 31.3-1.5 5.3-6.3 7.9-14.2 7.9h-10.3l-2.4-7.9 8.5 0.1c2.8 0 5-0.2 6.7-0.6 1.5-0.5 2.7-1.7 3.4-3.7 0.8-2.6 1.4-8.9 1.7-18.7h-34v38.5h43.2v7.8c-2.4 13.1-6.5 24.2-12.5 33.5 5.6 5.5 12.3 10.5 20.2 15l-4.4 7.7z m112.2-7c-3.7 4.2-10.1 6.4-19.1 6.4-2.1 0-7.1-0.2-14.9-0.5l-2.3-8.3 15 0.6c7.5-0.1 12.3-1.7 14.4-4.8 2-3.1 3.1-10.9 3.4-23.7h-37.6c-0.9 3.1-2.3 6.3-4.1 9.5-6.5 11.5-21.5 21-44.8 28.4l-6.1-7.5c20.9-6.1 34.7-13.8 41.3-23.1 1.8-2.6 3.1-5 3.9-7.2H526V710h40.4c1-4.6 1.5-9.4 1.5-14.5h9c0 4.6-0.4 9.4-1.3 14.5h44.8c0 21.6-2 34.4-5.6 38.6z m15-47c-20.1-2.3-38-7.4-53.8-15.3-15.6 7.2-33.7 12.4-54.3 15.5l-4.2-8.6c18.4-2.5 34.6-6.6 48.6-12.2-7-4.1-13.6-8.9-19.8-14.4-5 4.5-10.3 8.4-15.9 11.8l-5.6-7.4c15.4-8.8 25.8-19.5 31-32.2l9.3 1.3c-1.3 3.1-2.9 6.3-4.8 9.7h55.5v7.4c-8.1 9.4-18.1 17.4-29.8 24 14.4 6.1 30.4 10 48.1 11.8l-4.3 8.6zM351.3 550s8.9-41.2 29-54.8c20.1-13.6 78-36.1 78-36.1l37.6 63.6 6.9-9.4-8.9-18.1 17.8-18.1 17.8 18.1-8.9 18.1 6.9 9.4 37.6-63.6s57.9 22.6 78 36.1c23.6 16 29.5 54.8 29.5 54.8H351.3z"  /><path fill="#d81e06" d="M596.1 385.9h5.8c0-3.2 0.3-26.7-5.8 0zM511.7 549.4l-15.8-26.7-19.8 26.7z"  /></svg>