<?xml version="1.0" standalone="no"?><!DOCTYPE svg PUBLIC "-//W3C//DTD SVG 1.1//EN" "http://www.w3.org/Graphics/SVG/1.1/DTD/svg11.dtd"><svg class="icon" width="16px" height="16.00px" viewBox="0 0 1024 1024" version="1.1" xmlns="http://www.w3.org/2000/svg"><path d="M512 1024c-281.6 0-512-230.4-512-512s230.4-512 512-512 512 230.4 512 512-230.4 512-512 512z m0-377.6l160 83.2-32-172.8 128-128-179.2-25.6L512 243.2 435.2 403.2 256 428.8l128 128-32 179.2L512 646.4z" fill="#D0EEFE" /><path d="M512 902.4c-217.6 0-390.4-172.8-390.4-390.4S294.4 121.6 512 121.6s390.4 172.8 390.4 390.4-172.8 390.4-390.4 390.4z m0-256l160 83.2-32-172.8 128-128-179.2-25.6L512 243.2 435.2 403.2 256 428.8l128 128-32 179.2L512 646.4z" fill="#14A9F8" /></svg>