<?xml version="1.0" standalone="no"?><!DOCTYPE svg PUBLIC "-//W3C//DTD SVG 1.1//EN" "http://www.w3.org/Graphics/SVG/1.1/DTD/svg11.dtd"><svg class="icon" width="16px" height="15.20px" viewBox="0 0 1078 1024" version="1.1" xmlns="http://www.w3.org/2000/svg"><path fill="#d81e06" d="M786.539376 662.689874l-128.592775 152.522025-81.542694 96.741002-22.042936 26.138934-3.395366 4.042103c-1.886315 2.155788-3.880419 4.203787-5.982313 6.090102 7.545259-6.844628 3.125893-2.425262 0.808421-0.862315a47.319554 47.319554 0 0 1-5.119998 2.802524c10.455573-5.227787-0.377263-0.377263-4.042103 0.323369 11.10231-2.101894 5.173892-0.808421 2.155789-0.754526-9.593258 0.215579 6.467365 1.509052 0.323368 0.377263a46.780607 46.780607 0 0 1-5.443366-1.509052c-6.844628-2.155788 7.976417 3.880419 1.509052 0.646736a45.002082 45.002082 0 0 1-5.066102-3.071998c-6.143997-4.095998 6.52126 5.712839 0.970104 0.592842a50.337658 50.337658 0 0 1-4.688839-4.958313l-2.85642-3.395367-14.335992-17.084623-56.858918-67.691753-174.564961-207.871891-157.534232-187.553586-35.462719-42.091767-1.886314-2.155788c-3.934314-4.796629 5.281681 7.706943 0-0.377263a85.369218 85.369218 0 0 1-5.712839-10.563363c-3.233683-6.898523 3.233683 8.35368 0.485052 1.131789a113.879519 113.879519 0 0 1-5.389471-20.479989c-1.401262-7.760838 0.970105 9.215995 0.161684 1.347367-0.215579-2.155788-0.323368-4.257682-0.431157-6.359575a109.945205 109.945205 0 0 1 0.215578-12.611362c0.161684-2.586946 1.401262-10.07831-0.377263 1.616841l1.131789-5.874523c0.862315-3.77263 2.047999-7.545259 3.503156-11.10231l2.479157-6.251786 88.818479-221.992304 6.359576-15.845045c1.239578-3.287577 5.389471-13.096414-0.538947 1.185684 1.616841-3.718735 3.503156-7.275786 5.712839-10.617258 1.239578-2.047999 5.874523-7.760838-0.808421 0.754526a98.681211 98.681211 0 0 1 13.258099-13.473677c-7.976417 6.844628-2.371367 1.94021-0.485053 0.538947 2.317472-1.616841 4.742734-3.125893 7.167997-4.58105 1.83242-1.077894 3.718735-1.994104 5.605049-2.964209 6.844628-3.557051-8.030312 3.125893-0.91621 0.269474 3.77263-1.509052 7.760838-2.694735 11.749047-3.664841 2.533051-0.538947 9.862732-1.562947-1.670736 0 1.94021-0.215579 3.880419-0.323368 5.874523-0.377263h2.047999l43.115767 0.10779 236.59777 0.700631 264.084071 0.754526 77.500591 0.215579h13.797046c2.047999 0 4.095998 0.107789 6.197891 0.323368-12.503572-1.023999 0.808421 0.377263 4.203787 1.293473 1.994104 0.538947 3.934314 1.293473 5.874524 1.886315a30.234931 30.234931 0 0 0 1.023999 0.538947 97.818896 97.818896 0 0 1 16.168413 10.239995c-8.407575-6.41347-2.533051-1.886315-0.700632-0.323369 3.071998 2.85642 6.036207 5.874523 8.730943 9.108206 4.958313 5.766734-4.958313-7.060207-0.592842-0.862315 1.509052 2.209683 2.964209 4.527156 4.257682 6.952417 1.83242 3.287577 5.389471 12.503572-0.215579-1.509052l0.269474 0.700631 1.509052 3.77263 5.928418 14.713255 20.587778 51.631131 51.738921 129.293406 16.707359 41.930083 3.018104 7.545259c1.94021 4.850524 3.395367 9.970521 4.311577 15.198308 1.455157 7.491364-0.970105-9.431574-0.161685-1.724631 0.215579 2.047999 0.323368 4.149893 0.431158 6.197892 0.161684 4.958313 0 9.862732-0.485052 14.76715-0.700631 7.922522 1.401262-9.054311 0.161684-1.293473a115.873623 115.873623 0 0 1-4.68884 18.485885c-0.808421 2.317472-3.77263 9.323785 0.592842-1.077894-0.808421 1.886315-1.724631 3.718735-2.586946 5.551155a71.679962 71.679962 0 0 1-2.910314 5.173892c-1.401262 2.371367-7.167996 9.916626 0.053894 0.538947-3.071998 3.988208-6.467365 7.760838-9.808837 11.641257l-43.007977 50.930499-14.389887 17.084623c-12.773046 15.144413-14.551571 37.025665 0 51.954499 13.042519 13.419782 37.941875 15.198308 50.714921 0l65.374281-77.500591a141.635294 141.635294 0 0 0 31.797878-106.603733 165.295071 165.295071 0 0 0-11.641257-42.361241l-89.519111-223.986409-4.365471-10.832836a141.527504 141.527504 0 0 0-21.126726-36.756191c-21.557883-27.70188-59.014706-46.079976-93.507319-46.187765l-45.271555-0.161684L572.361804 1.078433 309.463416 0.270012 233.741351 0.000539h-12.665257c-41.121663-0.107789-77.338907 24.144829-101.483736 56.589444-8.407575 11.317889-12.826941 25.707776-18.108622 38.911979l-19.240411 48.127975-51.900604 129.886247-18.43199 45.864397a155.917392 155.917392 0 0 0-11.479573 46.565029 141.204136 141.204136 0 0 0 31.959562 100.082473l8.407574 10.024416 124.820145 148.533816 182.056325 216.764518L468.883964 985.734757l7.006312 8.299785c14.551571 17.354096 35.462718 26.623986 57.290075 28.887564 23.821461 2.425262 46.565028-8.191996 63.973019-24.090935 5.389471-4.850524 9.862732-11.10231 14.497676-16.653465l28.671985-34.007561 169.552753-201.027262 27.324617-32.444615c12.773046-15.090518 14.551571-37.025665 0-51.954499-13.096414-13.419782-37.941875-15.198308-50.71492 0"  /><path fill="#d81e06" d="M305.906365 238.538519h460.799758a50.82271 50.82271 0 0 0 50.122079-51.469447 50.82271 50.82271 0 0 0-50.122079-51.415552h-460.799758a50.82271 50.82271 0 0 0-50.229868 51.415552c0 28.456406 22.474093 51.469447 50.229868 51.469447M425.390934 456.111457h226.627249a50.82271 50.82271 0 0 0 50.229868-51.469447 50.82271 50.82271 0 0 0-50.229868-51.415552H425.390934a50.82271 50.82271 0 0 0-50.175974 51.415552c0 28.402511 22.474093 51.469447 50.175974 51.469447M184.643271 420.163686l280.0908 342.770346 10.940626 13.311993a49.421448 49.421448 0 0 0 70.763752 6.467365 52.331762 52.331762 0 0 0 6.251786-72.542277L272.545541 367.454661l-10.940626-13.365887a49.421448 49.421448 0 0 0-70.709858-6.359576 52.331762 52.331762 0 0 0-6.251786 72.488383"  /><path fill="#d81e06" d="M203.183051 433.098416a50.283763 50.283763 0 0 0 65.805439-27.270722l6.682944-16.006729 76.799959-182.703061a52.493446 52.493446 0 0 0-5.766733-51.469447 49.690921 49.690921 0 0 0-46.565028-20.210516 50.391552 50.391552 0 0 0-40.097664 31.528405l-6.682943 16.006728-76.746065 182.595273a52.439551 52.439551 0 0 0 26.570091 67.476175"  /></svg>