<?xml version="1.0" standalone="no"?><!DOCTYPE svg PUBLIC "-//W3C//DTD SVG 1.1//EN" "http://www.w3.org/Graphics/SVG/1.1/DTD/svg11.dtd"><svg class="icon" width="16px" height="12.00px" viewBox="0 0 1365 1024" version="1.1" xmlns="http://www.w3.org/2000/svg"><path d="M649.75276288 79.90124261c-241.25655246 0-437.56255466 196.30203048-437.56255468 437.56255467s196.30203048 437.56255466 437.56255468 437.56255467c241.26184808 0 437.56255466-196.30203048 437.56255465-437.56255467s-196.29938268-437.56255466-437.56255465-437.56255468z" fill="#ff5717" /><path d="M649.75276288 1019.30988857c277.68909725 0 501.84609128-224.16228965 501.8460913-501.84609129 0-277.69571678-224.16228965-501.84609128-501.8460913-501.8460913s-501.84609128 224.1464028-501.8460913 501.8460913c0 277.68909725 224.16228965 501.84609128 501.8460913 501.84609129M649.75276288 79.17971432c240.88850684 0 438.28408296 197.39690001 438.28408297 438.28408296s-197.39690001 438.28408296-438.28408297 438.28408295-438.28275905-197.39690001-438.28275907-438.28408295 197.39160439-438.28408296 438.28275907-438.28408296M649.75276288 520.80533379z" fill="#ffe4d9" /><path d="M472.71752349 516.14651169c16.45481664 0 16.45481664-25.34881118 0-25.34881118-16.45878835 0-16.45878835 25.34881118 0 25.34881118zM522.45001901 396.32780344c-0.50573175 1.05515238-0.80625821 2.28638413-0.80625821 3.59572628 0 3.36933851 1.98453376 6.27663414 4.84946442 7.61642611 1.11075638 0.52956204 2.357875 0.82744069 3.67251279 0.8274407 3.37331023 0 6.29649271-1.96202738 7.68394526-4.80577556 10.75143341-22.68511409 6.28987319-39.41530299 2.36979015-54.24568808-3.28593249-12.37454109-6.10187866-23.03859677-0.09929288-36.95151556 0.43026917-0.97836588 0.67783941-2.1222199 0.67783941-3.32167792 0-3.47260311-2.08912227-6.45403742-5.08114782-7.75808397-1.04191332-0.45807117-2.19371077-0.70696532-3.40243614-0.70696531-3.47392702 0-6.46198085 2.07455931-7.79250546 5.0573175-8.33265878 19.30386044-4.27886133 34.53009314-0.72285222 47.97832125 3.58778285 13.7778805 6.7347053 25.64933764-1.34111586 42.71712237zM700.58939527 503.70445143c-7.5859763 13.04046535-12.93852466 28.3289216-15.08722265 44.62751744 14.18696718-30.51204112 21.18910132-31.9815758 28.52485954-33.69470901 0.4673385-0.83935584 0.87377736-1.67341605 1.34111587-2.51144798 14.21079748-24.68023909 33.25252469-37.59360957 44.68179753-37.59360958 2.16855658 0 3.98363047 0.43291697 5.59349909 1.37288961 4.96067245 2.78417245 7.54228742 10.3317555 7.13982029 20.65689146-0.16813596 4.15838595-0.97174635 8.58287685-2.05072903 13.10798451 9.54535586 1.89318431 18.0236442 5.37902647 25.55534041 10.20995622-7.78985769-11.08108579-6.72014235-17.04660222-6.52288051-22.64804475 0.50308393-13.24699455-2.74975093-23.90840243-9.24880111-30.88405845 0.60767245-0.56795529 1.1398823-1.20607755 1.57677098-1.97526643l80.06845729-139.49855774c0.70299361-1.20475365 1.11340421-2.65045804 1.11340419-4.19015968 0-3.1363312-1.71313322-5.87151918-4.25767885-7.32384309-1.25241424-0.72152828-2.70473814-1.13458669-4.25238321-1.13458667-3.1363312 0-5.8794626 1.69592244-7.35694073 4.2219334l-80.08963974 139.51576853c-0.58516607 0.97704197-0.96777463 2.14075456-1.05780019 3.38257754-1.77668066-1.46291516-3.98230656-1.70386587-6.24883214-1.70386588-0.0013239 0-0.0013239 0-0.00264779 0-19.64278016-0.0026478-43.54853475 18.50819346-59.42877657 46.07189791zM747.07567547 562.6579461c16.45878835 0 16.45878835-25.35543071 0-25.35543073-16.45481664-0.02912591-16.45481664 25.35543071 0 25.35543073zM554.08870339 396.09479615c-0.571927 1.10810858-0.90952281 2.42274635-0.90952283 3.81284672 0 3.28460858 1.87597355 6.1363002 4.61645711 7.52507666 1.1623887 0.59310949 2.47702646 0.92540967 3.87109857 0.92540966 3.29519983 0 6.14689144-1.85876278 7.58200458-4.58203559 7.39401006-14.5311825 4.27886133-25.49576465 1.76344162-34.31694442-1.97526642-6.97300822-3.4156752-12.03694527-0.26875276-18.84711318 0.49249269-1.0352938 0.7784562-2.25725821 0.77845621-3.53747446 0-3.38919708-1.99777282-6.30973177-4.88653376-7.64290419-1.09486952-0.51102737-2.31815785-0.79699087-3.60896535-0.79699089-3.40376004 0-6.34680111 1.9964489-7.71307116 4.88520986-5.82253468 12.52679016-2.93774545 22.55669529-0.65930477 30.57029296 2.21092154 7.75543614 3.82476187 13.41777831-0.56795528 22.00462687zM644.98670447 528.82157923c-16.45481664 0-16.45481664 25.34881118 0 25.34881118s16.45481664-25.34881118 0-25.34881118zM563.10714502 512.99561753c16.45481664 0 16.45481664-25.35675461 0-25.35675462-16.45878835-0.02912591-16.45878835 25.35675461 0 25.35675462zM663.08713516 447.468934c-16.45878835 0-16.45878835 25.34881118-1e-8 25.34881119 16.45481664 0 16.45481664-25.34881118 0-25.34881119zM887.30370493 507.72647518v-0.03309763c0.06619525 0 0.1284188-0.90290328 0.12841879-1.67341605 0-25.5871141-26.70846173-47.85122637-70.81700834-63.54347368-0.04104107 6.42358761-1.59001003 12.47118615-4.30533942 17.83300186 36.81912507 12.94911591 58.13134957 30.08706759 58.13134955 46.35124189 0 33.47096905-90.18838794 70.79185414-219.58687358 70.79185414-129.43158329 0-219.59084531-37.32220902-219.59084531-70.79185414 0-33.50274277 90.19235966-70.79185414 219.59084532-70.79185415 34.75515699 0 66.65729848 2.71532937 94.77969085 7.31060403-0.00397173-0.28066788-0.00529562-0.61826368-0.0052956-0.95453559 0-5.88343433 1.26168157-11.46898999 3.5282071-16.50380114-29.72564149-4.47347537-62.84048005-7.05509034-98.30260236-7.05509034-134.29296286 0-235.64319479 37.5260904-236.58846305 87.19239068-0.06619525-0.06751916-0.16813596-0.06751916-0.23168341-0.13503832l1.20607758 15.22226097c11.12609857 138.23422837 112.61004493 208.68583891 236.1158289 208.6858389 122.76969276 0 226.56914916-74.5848423 236.3157386-212.16903323l0.63150277-9.72275915h-0.99690057v0.00264782zM651.38381398 712.68684511c-107.22042722 0-196.56019198-51.67731215-216.10765097-168.67345472 36.46431851 30.24990791 117.16957413 50.33752017 215.57014549 50.33752017 99.43851297 0 180.81234068-20.49272722 216.74312541-51.30926653-19.3766752 115.99394639-110.17141171 169.64652496-216.21091558 169.64652496z" fill="#ffffff" /></svg>