<?xml version="1.0" standalone="no"?><!DOCTYPE svg PUBLIC "-//W3C//DTD SVG 1.1//EN" "http://www.w3.org/Graphics/SVG/1.1/DTD/svg11.dtd"><svg class="icon" width="16px" height="15.06px" viewBox="0 0 1088 1024" version="1.1" xmlns="http://www.w3.org/2000/svg"><path d="M37.632 525.888c0 275.392 225.408 497.408 504.896 497.408 279.488 0 504.896-222.08 504.896-497.408S822.016 28.48 542.464 28.48C263.04 28.48 37.696 250.56 37.696 525.888z" fill="#5A9EF7" /><path d="M614.144 588.992s17.984-24.96 36.032-74.624c19.84-49.792 21.632-78.208 21.632-78.208l-144.256-1.728v-48l174.912-1.792v-35.52h-176.64V270.976H439.168v78.144H273.28v35.52l164.032-1.728v53.248H307.584v28.416h270.464c-1.792 17.792-7.232 33.792-12.608 49.792-10.88 26.624-21.632 51.52-21.632 51.52s-126.208-44.416-194.752-44.416c-66.752 0-147.84 26.624-156.864 103.04-7.232 76.352 37.824 119.04 102.784 133.248 63.104 14.208 122.624 0 174.912-24.96 52.288-24.832 102.784-81.664 102.784-81.664l268.672 129.664s16.192-24.832 28.8-48c9.024-15.936 16.256-33.664 23.488-49.664L614.144 588.992z m-277.76 126.08c-95.552 0-113.536-46.144-113.536-78.144 0-32 19.84-69.312 100.928-74.624 79.36-5.312 189.376 56.832 189.376 56.832s-81.152 96-176.704 96z" fill="#FFFFFF" /></svg>